<?xml version="1.0" encoding="iso-8859-1"?>
<!-- Generator: Adobe Illustrator 19.0.0, SVG Export Plug-In . SVG Version: 6.00 Build 0)  -->
<svg version="1.1" id="Capa_1" xmlns="http://www.w3.org/2000/svg" xmlns:xlink="http://www.w3.org/1999/xlink" x="0px" y="0px"
	 viewBox="0 0 512 512" style="enable-background:new 0 0 512 512;" xml:space="preserve">
<path style="fill:#F1444A;" d="M381.633,431.307c-9.635,0-19.197-1.355-28.422-4.027l-1.853-0.537l0.463-1.873
	c1.893-7.661,2.853-15.599,2.853-23.592v-22.071l2.86,1.339c7.623,3.57,15.757,5.38,24.177,5.38c20.471,0,39.522-10.974,49.72-28.64
	c14.75-25.552,7.367-58.77-16.807-75.625c-1.336-0.929-2.74-1.821-4.167-2.652l-55.783-32.21v-50.933h2.546l0.476,0.269
	l75.455,43.57c7.187,4.145,13.847,9.141,19.792,14.847c16.267,15.622,27.068,36.597,30.414,59.063
	c3.448,23.155-0.915,46.105-12.616,66.37C452.46,411.641,418.315,431.307,381.633,431.307z"/>
<g>
	<path style="fill:#C43341;" d="M296.832,350.379l-43.429-25.078l1.09-2.235l0.551-0.347l59.261-34.214l41.372-23.893l18.944-10.93
		l37.848,21.852c1.527,0.887,3.022,1.839,4.449,2.831l2.598,1.806l-61.832,35.694l-41.372,23.893l-18.396,10.619H296.832z"/>
	<path style="fill:#C43341;" d="M313.303,152.109l37.848-21.842c1.468-0.853,3.044-1.675,4.682-2.44l2.857-1.334v141.016
		l-45.387,26.212L313.303,152.109L313.303,152.109z"/>
</g>
<g>
	<path style="fill:#F1444A;" d="M450.163,257.449c-5.711-5.481-12.11-10.282-19.018-14.266l-19.11-11.037l2.591-1.806
		c24.173-16.856,31.557-50.074,16.807-75.625c-10.196-17.663-29.246-28.636-49.715-28.636c-8.424,0-16.56,1.812-24.183,5.387
		c-1.532,0.715-3.001,1.481-4.37,2.277l-36.85,21.266l-18.944,10.94l-44.098-25.465l1.294-2.201l0.488-0.314l59.072-34.113
		l16.334-9.428c7.208-4.157,14.863-7.423,22.753-9.706c9.224-2.672,18.786-4.027,28.421-4.027c36.682,0,70.827,19.666,89.107,51.322
		c11.701,20.268,16.063,43.221,12.612,66.378c-3.347,22.464-14.146,43.438-30.409,59.055l-1.391,1.335L450.163,257.449z"/>
	<path style="fill:#F1444A;" d="M254.964,189.241l-40.884-23.608l-0.468-0.265l-18.934-10.93v-43.716
		c0-1.808,0.076-3.584,0.229-5.279l0.164-1.829h2.374l0.477,0.269l119.396,68.946v52.404L254.964,189.241z"/>
	<path style="fill:#F1444A;" d="M153.307,110.723c0-8.318,0.999-16.58,2.971-24.556c5.388-21.895,18.149-41.736,35.93-55.869
		c18.329-14.567,40.387-22.266,63.79-22.266s45.462,7.699,63.79,22.266c17.781,14.133,30.542,33.975,35.931,55.871l0.461,1.872
		l-1.853,0.536c-7.579,2.195-14.934,5.333-21.861,9.328l-18.092,10.442l-1.258-2.239l-0.037-0.432
		c-2.566-29.298-27.638-52.248-57.08-52.248c-29.505,0-54.582,23.002-57.09,52.365c-0.143,1.584-0.214,3.241-0.214,4.929v64.416
		l-45.387,26.213v-90.629H153.307z"/>
</g>
<path style="fill:#C43341;" d="M99.527,236.466c-1.527-0.887-3.022-1.839-4.449-2.831l-2.598-1.806l61.832-35.694l41.372-23.893
	l18.396-10.619h1.076l0.476,0.269l43.094,24.885l-1.294,2.201l-0.488,0.314l-59.252,34.204l-41.372,23.893l-18.944,10.93
	L99.527,236.466z"/>
<g>
	<path style="fill:#F1444A;" d="M78.846,272.296c-7.172-4.136-13.827-9.132-19.782-14.847
		c-16.268-15.617-27.071-36.591-30.419-59.059c-3.451-23.158,0.91-46.11,12.612-66.374c18.282-31.66,52.424-51.327,89.1-51.327
		c9.638,0,19.202,1.356,28.428,4.031l1.853,0.537l-0.463,1.873c-1.893,7.661-2.853,15.598-2.853,23.592v22.071l-2.86-1.339
		c-7.62-3.57-15.753-5.38-24.173-5.38c-20.474,0-39.526,10.974-49.724,28.64c-14.75,25.552-7.367,58.77,16.807,75.625
		c1.336,0.929,2.74,1.821,4.167,2.652l36.839,21.27l18.944,10.93v52.425L78.846,272.296z"/>
	<path style="fill:#F1444A;" d="M314.541,408.385l-60.57-34.972v-0.01l-57.813-33.375h-1.47l-0.01-2.008v-49.784h2.546l0.476,0.269
		l100.215,57.862l0.468,0.265l18.934,10.93v43.716c0,1.808-0.076,3.584-0.229,5.279l-0.164,1.829H314.541z"/>
</g>
<path style="fill:#C43341;" d="M153.307,244.491l45.387-26.212v141.602l-1.004,0.589l-36.844,21.273
	c-1.596,0.918-3.173,1.736-4.692,2.434l-2.847,1.31L153.307,244.491L153.307,244.491z"/>
<g>
	<path style="fill:#F1444A;" d="M255.998,503.969c-23.404,0-45.462-7.699-63.79-22.266c-17.781-14.133-30.542-33.975-35.931-55.871
		l-0.461-1.872l1.853-0.536c7.579-2.195,14.934-5.333,21.861-9.328l19.107-11.036l0.271,3.146
		c2.519,29.364,27.596,52.366,57.09,52.366c29.505,0,54.582-23.002,57.09-52.365c0.143-1.584,0.214-3.241,0.214-4.929v-64.416
		l45.387-26.213v90.629c0,8.319-0.999,16.58-2.971,24.556c-5.388,21.895-18.149,41.736-35.93,55.869
		C301.461,496.27,279.403,503.969,255.998,503.969z"/>
	<path style="fill:#F1444A;" d="M130.365,431.307c-36.682,0-70.827-19.666-89.107-51.322
		c-11.701-20.268-16.063-43.222-12.612-66.378c3.348-22.465,14.151-43.438,30.419-59.055l1.39-1.335l1.39,1.335
		c5.721,5.491,12.117,10.291,19.009,14.266l19.11,11.037l-2.591,1.806c-24.173,16.856-31.557,50.074-16.807,75.625
		c10.196,17.663,29.246,28.636,49.715,28.636c8.424,0,16.56-1.812,24.183-5.387c1.422-0.655,2.891-1.417,4.379-2.272l55.784-32.212
		l43.359,25.033v1.833l-0.652,0.871l-0.382,0.244l-59.042,34.083l-16.374,9.457c-7.208,4.158-14.863,7.424-22.753,9.707
		C149.562,429.952,139.999,431.307,130.365,431.307z"/>
</g>
<path d="M34.302,384c12.439,21.54,32.036,38.43,55.184,47.56c13.067,5.154,27,7.751,40.917,7.751c7.015,0,14.024-0.677,20.917-2.003
	c6.852,19.792,19.35,37.535,35.892,50.681C206.693,503.473,231.122,512,255.998,512s49.306-8.527,68.788-24.011
	c16.544-13.148,29.042-30.893,35.893-50.681c6.893,1.326,13.9,2.003,20.916,2.003c13.916,0,27.851-2.598,40.917-7.751
	c23.147-9.13,42.745-26.02,55.184-47.559c12.439-21.541,17.27-46.957,13.605-71.57c-3.112-20.899-12.225-40.595-25.938-56.43
	c13.709-15.832,22.821-35.526,25.935-56.423c3.666-24.613-1.164-50.033-13.602-71.577c-2.772-4.801-8.91-6.447-13.714-3.674
	c-4.802,2.772-6.447,8.912-3.674,13.714c19.372,33.553,15.243,75.08-9.439,104.041c-4.318-3.439-8.9-6.563-13.701-9.33l-4.292-2.478
	c8.122-8.845,13.864-19.717,16.561-31.681c3.846-17.059,1.157-34.78-7.572-49.9s-22.732-26.31-39.43-31.507
	c-16.44-5.117-34.018-3.981-49.55,3.167c-0.104,0.043-0.207,0.09-0.309,0.137c-0.047,0.022-0.094,0.04-0.142,0.062
	c-0.175,0.081-0.339,0.171-0.513,0.253c-0.009,0.005-0.018,0.009-0.027,0.013c-1.66,0.792-3.27,1.629-4.758,2.494l-36.54,21.091
	c-0.1,0.054-0.197,0.113-0.296,0.171l-12.932,7.464l-21.295-12.297l60.404-34.878c6.368-3.673,13.124-6.557,20.084-8.571
	c23.801-6.893,49.774-3.612,71.264,9.003c4.784,2.807,10.934,1.206,13.741-3.576c2.807-4.782,1.206-10.933-3.576-13.74
	c-23.336-13.698-51.019-18.367-77.318-13.297c-6.853-19.788-19.35-37.527-35.888-50.672C305.305,8.527,280.876,0,255.998,0
	s-49.306,8.527-68.788,24.011c-16.543,13.147-29.041,30.891-35.891,50.677c-20.567-3.958-42.182-2.005-61.836,5.749
	c-23.146,9.131-42.743,26.022-55.183,47.562c-12.439,21.54-17.268,46.959-13.6,71.575c3.114,20.9,12.228,40.595,25.94,56.426
	c-13.713,15.831-22.826,35.525-25.94,56.423C17.034,337.036,21.865,362.456,34.302,384z M255.998,491.922
	c-38.748,0-72.644-24.341-85.377-60.2c5.126-2.015,10.122-4.418,14.932-7.193l4.292-2.478c3.601,11.453,10.146,21.858,19.156,30.175
	c12.851,11.86,29.541,18.393,46.997,18.393c17.461,0,34.154-6.533,47.005-18.393c12.773-11.789,20.618-27.767,22.085-44.953
	c0.174-1.932,0.261-3.949,0.261-5.994v-57.463l21.293-12.294v50.746c0,0.033-0.005,0.064-0.005,0.097
	c0,0.044,0.004,0.086,0.005,0.131v18.783c0,7.345-0.881,14.634-2.62,21.675C334.028,463.561,297.832,491.922,255.998,491.922z
	 M97.124,292.125l48.152,27.808v55.585c-4.873,1.562-9.883,2.331-14.86,2.33c-17.157-0.001-33.877-8.955-42.896-24.577
	C75.887,333.115,80.276,307.422,97.124,292.125z M116.084,232.113l43.995-25.401c0.032-0.017,0.062-0.037,0.094-0.054l54.451-31.439
	l21.3,12.297l-44.012,25.408c-0.012,0.007-0.024,0.014-0.036,0.021l-54.495,31.461L116.084,232.113z M145.276,192.072
	l-48.153,27.802c-16.848-15.297-21.237-40.99-9.603-61.145c11.632-20.152,36.079-29.198,57.756-22.257V192.072z M305.272,179.785
	v24.583l-85.623-49.433c-0.029-0.017-0.06-0.029-0.089-0.046l-12.832-7.408v-24.603L305.272,179.785z M366.721,319.928
	l48.153-27.802c16.848,15.297,21.237,40.99,9.603,61.145c-11.632,20.149-36.081,29.191-57.756,22.256V319.928z M351.92,305.289
	c-0.032,0.017-0.062,0.037-0.094,0.054l-54.451,31.438l-21.296-12.295l42.923-24.781c0.92-0.364,1.772-0.858,2.535-1.464
	l53.086-30.649l21.292,12.295L351.92,305.289z M206.726,227.555l49.275-28.447l49.269,28.444v56.894l-49.269,28.445l-49.275-28.45
	V227.555z M346.643,244.156c-0.136,0.949-0.134,1.901,0,2.835v13.571l-21.293,12.293v-98.739c0.001-0.143,0.005-0.284,0-0.426
	v-14.62l21.293-12.291V244.156z M165.354,251.439l21.293-12.293v113.787l-21.293,12.295L165.354,251.439L165.354,251.439z
	 M206.726,332.219v-24.592l85.623,49.437c0.022,0.013,0.046,0.021,0.068,0.033l12.853,7.42v24.605l-43.919-25.358
	c-0.115-0.073-0.234-0.146-0.354-0.214L206.726,332.219z M255.999,383.857l48.152,27.803c-4.825,22.237-24.88,38.88-48.152,38.88
	c-23.264,0-43.319-16.645-48.15-38.883L255.999,383.857z M444.599,263.241c30.166,28.968,36.624,74.498,15.707,110.72
	c-19.37,33.544-57.395,50.728-94.819,43.839c0.819-5.446,1.234-10.973,1.234-16.522v-4.951c4.926,1.097,9.952,1.652,14.994,1.652
	c6.954,0,13.939-1.049,20.726-3.162c16.696-5.198,30.698-16.388,39.425-31.508c8.728-15.121,11.418-32.841,7.572-49.9
	c-3.788-16.802-13.565-31.464-27.552-41.359c-0.053-0.041-0.108-0.079-0.163-0.119c-0.074-0.052-0.145-0.108-0.219-0.161
	c-1.605-1.115-3.284-2.185-5.018-3.191l-49.764-28.735v-24.587l60.41,34.882C433.479,253.8,439.356,258.21,444.599,263.241z
	 M424.477,158.729c11.634,20.156,7.245,45.85-9.604,61.147l-48.151-27.805V136.48C388.398,129.533,412.843,138.575,424.477,158.729z
	 M207.847,100.341c4.824-22.237,24.88-38.88,48.152-38.88c23.254,0,43.325,16.651,48.151,38.884L256,128.149L207.847,100.341z
	 M255.998,20.078c38.748,0,72.644,24.341,85.377,60.2c-5.126,2.015-10.121,4.418-14.93,7.192l-4.292,2.479
	c-3.606-11.476-10.169-21.901-19.203-30.222c-12.844-11.83-29.517-18.346-46.951-18.346c-17.461,0-34.154,6.533-47.005,18.393
	c-12.773,11.789-20.618,27.767-22.085,44.953c-0.174,1.932-0.261,3.949-0.261,5.994v57.463l-21.293,12.294v-69.756
	c0-7.345,0.881-14.634,2.62-21.675C177.97,48.439,214.166,20.078,255.998,20.078z M51.691,138.039
	c19.375-33.552,57.397-50.737,94.819-43.84c-0.819,5.447-1.234,10.974-1.234,16.524v4.961c-11.721-2.61-24.007-2.146-35.715,1.5
	c-16.699,5.198-30.703,16.388-39.43,31.507c-8.728,15.121-11.418,32.841-7.572,49.9c3.79,16.814,13.578,31.484,27.58,41.379
	c0.04,0.03,0.081,0.059,0.121,0.089c0.078,0.055,0.154,0.115,0.233,0.171c1.605,1.115,3.284,2.185,5.018,3.191l36.827,21.258
	c0.054,0.031,0.107,0.063,0.162,0.093l12.776,7.375v24.6l-60.41-34.886c-6.331-3.651-12.205-8.061-17.459-13.102
	C37.235,219.793,30.773,174.264,51.691,138.039z M61.137,269.919c4.32,3.443,8.9,6.566,13.692,9.33l4.291,2.479
	c-8.122,8.845-13.864,19.717-16.561,31.681c-3.846,17.059-1.157,34.78,7.572,49.9c8.728,15.12,22.732,26.31,39.43,31.507
	c6.793,2.113,13.777,3.161,20.73,3.161c9.913,0,19.756-2.14,28.871-6.352c0.05-0.021,0.098-0.043,0.149-0.064
	c0.066-0.031,0.135-0.056,0.201-0.087c1.737-0.799,3.531-1.73,5.35-2.775l49.764-28.735l21.301,12.297l-60.41,34.877
	c-6.368,3.673-13.124,6.557-20.084,8.571c-40.172,11.635-82.83-5.532-103.743-41.748C32.319,340.406,36.451,298.88,61.137,269.919z"
	/>
<path d="M455.11,100.653c-12.919,0-12.941,20.078,0,20.078C468.03,120.732,468.051,100.653,455.11,100.653z"/>
<g>
</g>
<g>
</g>
<g>
</g>
<g>
</g>
<g>
</g>
<g>
</g>
<g>
</g>
<g>
</g>
<g>
</g>
<g>
</g>
<g>
</g>
<g>
</g>
<g>
</g>
<g>
</g>
<g>
</g>
</svg>
